<svg xmlns="http://www.w3.org/2000/svg" viewBox="0 0 1200 630" width="1200" height="630">
  <defs>
    <linearGradient id="ng" x1="0%" y1="0%" x2="100%" y2="100%">
      <stop offset="0%" style="stop-color:#00cc6a"/><stop offset="100%" style="stop-color:#00ff88"/>
    </linearGradient>
    <filter id="g"><feGaussianBlur stdDeviation="4" result="b"/><feMerge><feMergeNode in="b"/><feMergeNode in="SourceGraphic"/></feMerge></filter>
    <filter id="g2"><feGaussianBlur stdDeviation="8" result="b"/><feMerge><feMergeNode in="b"/><feMergeNode in="SourceGraphic"/></feMerge></filter>
    <radialGradient id="sp" cx="50%" cy="40%" r="50%">
      <stop offset="0%" style="stop-color:#00ff88;stop-opacity:0.05"/><stop offset="100%" style="stop-color:#00ff88;stop-opacity:0"/>
    </radialGradient>
  </defs>
  <rect width="1200" height="630" fill="#0a0a0f"/>
  <rect width="1200" height="630" fill="url(#sp)"/>
  <g opacity="0.03" stroke="#00ff88" stroke-width="0.5">
    <line x1="0" y1="105" x2="1200" y2="105"/><line x1="0" y1="210" x2="1200" y2="210"/><line x1="0" y1="315" x2="1200" y2="315"/><line x1="0" y1="420" x2="1200" y2="420"/><line x1="0" y1="525" x2="1200" y2="525"/>
    <line x1="200" y1="0" x2="200" y2="630"/><line x1="400" y1="0" x2="400" y2="630"/><line x1="600" y1="0" x2="600" y2="630"/><line x1="800" y1="0" x2="800" y2="630"/><line x1="1000" y1="0" x2="1000" y2="630"/>
  </g>
  <!-- Header -->
  <text x="600" y="85" font-family="monospace" font-weight="900" font-size="14" fill="#00ff88" text-anchor="middle" letter-spacing="6" opacity="0.5">SNIPERFI ORDER TYPES</text>
  <text x="600" y="140" font-family="monospace" font-weight="900" font-size="56" fill="#ffffff" text-anchor="middle" letter-spacing="-1">Every Tool You Need</text>
  <text x="600" y="175" font-family="monospace" font-size="18" fill="#7a7a99" text-anchor="middle" letter-spacing="1">For precision trading on Pump.fun & PumpSwap</text>
  
  <!-- 4 Feature Cards -->
  <!-- Card 1: Limit Buy -->
  <g transform="translate(65, 210)">
    <rect x="0" y="0" width="255" height="240" rx="10" fill="#11111a" stroke="#1f1f32" stroke-width="1.5"/>
    <rect x="0" y="0" width="255" height="3" rx="2" fill="#00ff88" opacity="0.6"/>
    <rect x="18" y="24" width="38" height="38" rx="8" fill="#00ff8812" stroke="#00ff8840" stroke-width="1"/>
    <text x="37" y="50" font-family="monospace" font-size="18" fill="#00ff88" text-anchor="middle">🎯</text>
    <text x="68" y="42" font-family="monospace" font-weight="800" font-size="18" fill="#ffffff">Limit Buy</text>
    <text x="68" y="56" font-family="monospace" font-size="10" fill="#00ff88" opacity="0.6" letter-spacing="1">BUY THE DIP</text>
    <!-- Terminal mockup -->
    <rect x="18" y="78" width="220" height="80" rx="6" fill="#08080d" stroke="#1a1a28" stroke-width="1"/>
    <text x="28" y="98" font-family="monospace" font-size="9" fill="#7a7a99">token: $DOGE420</text>
    <text x="28" y="114" font-family="monospace" font-size="9" fill="#7a7a99">target: <tspan fill="#00ff88">0.0003 SOL</tspan></text>
    <text x="28" y="130" font-family="monospace" font-size="9" fill="#7a7a99">amount: <tspan fill="#ffffff">1.5 SOL</tspan></text>
    <text x="28" y="146" font-family="monospace" font-size="9" fill="#00ff88">● watching...</text>
    <text x="18" y="185" font-family="monospace" font-size="11" fill="#7a7a99" opacity="0.7">Set your entry price.</text>
    <text x="18" y="200" font-family="monospace" font-size="11" fill="#7a7a99" opacity="0.7">Buy when it dips.</text>
    <text x="18" y="225" font-family="monospace" font-size="9" fill="#00ff88" opacity="0.4">-10%  -20%  -30%  -50%</text>
  </g>
  
  <!-- Card 2: Take Profit -->
  <g transform="translate(340, 210)">
    <rect x="0" y="0" width="255" height="240" rx="10" fill="#11111a" stroke="#1f1f32" stroke-width="1.5"/>
    <rect x="0" y="0" width="255" height="3" rx="2" fill="#00ff88" opacity="0.6"/>
    <rect x="18" y="24" width="38" height="38" rx="8" fill="#00ff8812" stroke="#00ff8840" stroke-width="1"/>
    <text x="37" y="50" font-family="monospace" font-size="18" fill="#00ff88" text-anchor="middle">📈</text>
    <text x="68" y="42" font-family="monospace" font-weight="800" font-size="18" fill="#ffffff">Take Profit</text>
    <text x="68" y="56" font-family="monospace" font-size="10" fill="#00ff88" opacity="0.6" letter-spacing="1">LOCK GAINS</text>
    <rect x="18" y="78" width="220" height="80" rx="6" fill="#08080d" stroke="#1a1a28" stroke-width="1"/>
    <text x="28" y="98" font-family="monospace" font-size="9" fill="#7a7a99">token: $MEOW</text>
    <text x="28" y="114" font-family="monospace" font-size="9" fill="#7a7a99">target: <tspan fill="#00ff88">5x entry</tspan></text>
    <text x="28" y="130" font-family="monospace" font-size="9" fill="#7a7a99">entry: <tspan fill="#ffffff">0.001 SOL</tspan></text>
    <text x="28" y="146" font-family="monospace" font-size="9" fill="#00ff88">✓ sold @ 0.005 SOL</text>
    <text x="18" y="185" font-family="monospace" font-size="11" fill="#7a7a99" opacity="0.7">Auto-sell at your</text>
    <text x="18" y="200" font-family="monospace" font-size="11" fill="#7a7a99" opacity="0.7">profit target.</text>
    <text x="18" y="225" font-family="monospace" font-size="9" fill="#00ff88" opacity="0.4">2x  3x  5x  10x</text>
  </g>
  
  <!-- Card 3: Stop Loss -->
  <g transform="translate(615, 210)">
    <rect x="0" y="0" width="255" height="240" rx="10" fill="#11111a" stroke="#1f1f32" stroke-width="1.5"/>
    <rect x="0" y="0" width="255" height="3" rx="2" fill="#ff3355" opacity="0.5"/>
    <rect x="18" y="24" width="38" height="38" rx="8" fill="#ff335512" stroke="#ff335540" stroke-width="1"/>
    <text x="37" y="50" font-family="monospace" font-size="18" fill="#ff3355" text-anchor="middle">🛡️</text>
    <text x="68" y="42" font-family="monospace" font-weight="800" font-size="18" fill="#ffffff">Stop Loss</text>
    <text x="68" y="56" font-family="monospace" font-size="10" fill="#ff3355" opacity="0.6" letter-spacing="1">CAP LOSSES</text>
    <rect x="18" y="78" width="220" height="80" rx="6" fill="#08080d" stroke="#1a1a28" stroke-width="1"/>
    <text x="28" y="98" font-family="monospace" font-size="9" fill="#7a7a99">token: $PUMP</text>
    <text x="28" y="114" font-family="monospace" font-size="9" fill="#7a7a99">stop: <tspan fill="#ff3355">-30% from entry</tspan></text>
    <text x="28" y="130" font-family="monospace" font-size="9" fill="#7a7a99">status: <tspan fill="#ffaa00">monitoring</tspan></text>
    <text x="28" y="146" font-family="monospace" font-size="9" fill="#ff3355">⚠ triggered → sold</text>
    <text x="18" y="185" font-family="monospace" font-size="11" fill="#7a7a99" opacity="0.7">Protect your capital.</text>
    <text x="18" y="200" font-family="monospace" font-size="11" fill="#7a7a99" opacity="0.7">Auto-sell on dump.</text>
    <text x="18" y="225" font-family="monospace" font-size="9" fill="#ff3355" opacity="0.4">-15%  -25%  -40%  -50%</text>
  </g>
  
  <!-- Card 4: Trailing Stop -->
  <g transform="translate(890, 210)">
    <rect x="0" y="0" width="255" height="240" rx="10" fill="#11111a" stroke="#1f1f32" stroke-width="1.5"/>
    <rect x="0" y="0" width="255" height="3" rx="2" fill="#ffaa00" opacity="0.5"/>
    <rect x="18" y="24" width="38" height="38" rx="8" fill="#ffaa0012" stroke="#ffaa0040" stroke-width="1"/>
    <text x="37" y="50" font-family="monospace" font-size="18" fill="#ffaa00" text-anchor="middle">📉</text>
    <text x="68" y="42" font-family="monospace" font-weight="800" font-size="18" fill="#ffffff">Trail Stop</text>
    <text x="68" y="56" font-family="monospace" font-size="10" fill="#ffaa00" opacity="0.6" letter-spacing="1">RIDE PUMPS</text>
    <rect x="18" y="78" width="220" height="80" rx="6" fill="#08080d" stroke="#1a1a28" stroke-width="1"/>
    <text x="28" y="98" font-family="monospace" font-size="9" fill="#7a7a99">token: $WIF</text>
    <text x="28" y="114" font-family="monospace" font-size="9" fill="#7a7a99">trail: <tspan fill="#ffaa00">15% from peak</tspan></text>
    <text x="28" y="130" font-family="monospace" font-size="9" fill="#7a7a99">peak: <tspan fill="#00ff88">0.010 SOL ↑</tspan></text>
    <text x="28" y="146" font-family="monospace" font-size="9" fill="#ffaa00">◎ tracking peak...</text>
    <text x="18" y="185" font-family="monospace" font-size="11" fill="#7a7a99" opacity="0.7">Follows price up.</text>
    <text x="18" y="200" font-family="monospace" font-size="11" fill="#7a7a99" opacity="0.7">Sells near the top.</text>
    <text x="18" y="225" font-family="monospace" font-size="9" fill="#ffaa00" opacity="0.4">5%  10%  15%  20%</text>
  </g>
  
  <!-- Bottom bar -->
  <line x1="65" y1="480" x2="1145" y2="480" stroke="#1f1f32" stroke-width="1"/>
  <g font-family="monospace" font-size="12" fill="#7a7a99" opacity="0.4" letter-spacing="1">
    <text x="65" y="520">◎ SOLANA</text>
    <text x="250" y="520">⟐ JUPITER ROUTING</text>
    <text x="520" y="520">🔒 NON-CUSTODIAL</text>
    <text x="780" y="520">⚡ &lt;1s EXECUTION</text>
    <text x="1010" y="520">0.5% FEE</text>
  </g>
  <!-- Logo -->
  <rect x="65" y="560" width="24" height="24" rx="4" fill="none" stroke="#00ff88" stroke-width="1.5" opacity="0.5"/>
  <text x="77" y="577" font-family="monospace" font-size="10" fill="#00ff88" opacity="0.5" text-anchor="middle">⊕</text>
  <text x="99" y="578" font-family="monospace" font-weight="800" font-size="14" fill="#00ff88" opacity="0.5">SniperFi</text>
  <text x="260" y="578" font-family="monospace" font-size="11" fill="#7a7a99" opacity="0.3">sniperfi.com</text>
  <text x="1100" y="578" font-family="monospace" font-size="11" fill="#7a7a99" opacity="0.3" text-anchor="end">@UseSniperFi</text>
  <rect x="0" y="0" width="1200" height="2" fill="#00ff88" opacity="0.12"/>
  <rect x="0" y="628" width="1200" height="2" fill="#00ff88" opacity="0.12"/>
</svg>
